HIERARCHY
ROOT pelvis
{
  OFFSET 0 100 0
  CHANNELS 6 Xposition Yposition Zposition Zrotation Xrotation Yrotation
  JOINT pelvis_right_femur
  {
    OFFSET -10.78128 -3.44521 -0.5502486
    CHANNELS 3 Zrotation Xrotation Yrotation
    JOINT right_femur_tibia
    {
      OFFSET -0.8047443 -44.0398 -0.1307829
      CHANNELS 3 Zrotation Xrotation Yrotation
      JOINT right_tibia_foot
      {
        OFFSET 3.006224 -47.83518 -5
        CHANNELS 3 Zrotation Xrotation Yrotation
        End Site
        {
          OFFSET 0 -5 15
        }
      }
    }
  }
  JOINT pelvis_left_femur
  {
    OFFSET 10.78128 -3.44521 -0.5502486
    CHANNELS 3 Zrotation Xrotation Yrotation
    JOINT left_femur_tibia
    {
      OFFSET 0.8047443 -44.0398 -0.1307829
      CHANNELS 3 Zrotation Xrotation Yrotation
      JOINT left_tibia_foot
      {
        OFFSET -4.370144 -48.10324 -4.275266
        CHANNELS 3 Zrotation Xrotation Yrotation
        End Site
        {
          OFFSET 0 -5 15
        }
      }
    }
  }
  JOINT pelvis_spine1
  {
    OFFSET 0 6.468898 -3.129235
    CHANNELS 3 Zrotation Xrotation Yrotation
    JOINT spine1
    {
      OFFSET 0 23.15396 4.99043
      CHANNELS 3 Zrotation Xrotation Yrotation
      JOINT spine2
      {
        OFFSET 0 20.79997 -5.064912
        CHANNELS 3 Zrotation Xrotation Yrotation
        JOINT neck
        {
          OFFSET 0 14.38658 9.616178
          CHANNELS 3 Zrotation Xrotation Yrotation
          End Site
          {
            OFFSET 0 20 0
          }
        }
      }
      JOINT right_manubrium
      {
        OFFSET -5.722621 16.35077 3.967754
        CHANNELS 3 Zrotation Xrotation Yrotation
        JOINT right_clavicle
        {
          OFFSET -13.16364 1.694482 -4.693211
          CHANNELS 3 Zrotation Xrotation Yrotation
          JOINT right_humerus
          {
            OFFSET -28.5034 -0.3100689 -2.792744
            CHANNELS 3 Zrotation Xrotation Yrotation
            JOINT right_radius
            {
              OFFSET -25.15693 0.02248979 -1.271978
              CHANNELS 3 Zrotation Xrotation Yrotation
              End Site
              {
                OFFSET -15 0 0
              }
            }
          }
        }
      }
      JOINT left_manubrium
      {
        OFFSET 5.722621 16.35077 3.967754
        CHANNELS 3 Zrotation Xrotation Yrotation
        JOINT left_clavicle
        {
          OFFSET 13.16364 1.694482 -4.693211
          CHANNELS 3 Zrotation Xrotation Yrotation
          JOINT left_humerus
          {
            OFFSET 29.39168 -1.063119 -2.237045
            CHANNELS 3 Zrotation Xrotation Yrotation
            JOINT left_radius
            {
              OFFSET 24.59957 -0.9528479 0.9047498
              CHANNELS 3 Zrotation Xrotation Yrotation
              End Site
              {
                OFFSET 15 -0 -0
              }
            }
          }
        }
      }
    }
  }
}
MOTION
Frames: 7
Frame Time: 0.0416666666667
-143.0287 83.58867 227.3031 6.161565 -1.450654 38.46336 0.2052272 -1.359074 -8.370722 -0 17.80044 -0 -15.43207 1.005593 9.038891 -2.669695 -14.52132 -8.652593 -0 33.70278 -0 6.112745 0.4012771 13.16523 -3.648651 -1.93543 7.460422 -1.023292 14.93417 -4.823119 -2.914599 20.09493 9.849213 15.33096 -12.05748 -3.016771 13.8433 -18.623 14.07862 70.65817 38.00144 -8.442651 -0 0 23.414 -25.76588 9.849758 8.834412 8.802047 -28.01659 -12.85125 -94.49529 -2.576067 23.23727 -0 0 3.696963 23.36992 9.024715 -22.14337
-139.0412 83.62859 230.3484 6.142195 -1.530878 37.71882 0.2052273 -1.359074 -8.370722 -0 17.80044 -0 -15.43207 1.005593 9.03889 -2.669695 -14.52132 -8.652593 -0 33.70278 -0 6.112745 0.401277 13.16523 -3.648651 -1.93543 7.460422 -1.023292 14.93417 -4.823119 -2.914599 20.09493 9.849213 15.33096 -12.05748 -3.016771 13.8433 -18.623 14.07862 70.65817 38.00144 -8.442651 -0 0 23.414 -25.76588 9.849758 8.834412 8.802047 -28.01659 -12.85125 -94.49529 -2.576067 23.23727 -0 0 3.696963 23.36992 9.024715 -22.14337
-135.0939 83.66852 233.4456 6.121783 -1.610844 36.97423 0.2052274 -1.359074 -8.370722 -0 17.80044 -0 -15.43207 1.005593 9.03889 -2.669695 -14.52132 -8.652593 -0 33.70278 -0 6.112745 0.401277 13.16523 -3.648651 -1.93543 7.460422 -1.023292 14.93417 -4.823119 -2.914599 20.09493 9.849213 15.33096 -12.05748 -3.016771 13.8433 -18.623 14.07862 70.65817 38.00144 -8.442651 -0 0 23.414 -25.76588 9.849757 8.834412 8.802047 -28.01659 -12.85125 -94.49529 -2.576067 23.23727 -0 0 3.696963 23.36992 9.024715 -22.14337
-131.1873 83.70844 236.594 6.100332 -1.690537 36.22958 0.2052274 -1.359074 -8.370722 -0 17.80044 -0 -15.43207 1.005593 9.03889 -2.669695 -14.52132 -8.652593 -0 33.70278 -0 6.112745 0.401277 13.16523 -3.648651 -1.93543 7.460422 -1.023292 14.93417 -4.823119 -2.914599 20.09493 9.849213 15.33096 -12.05748 -3.016771 13.8433 -18.623 14.07862 70.65817 38.00144 -8.442651 -0 0 23.414 -25.76588 9.849757 8.834412 8.802047 -28.01659 -12.85125 -94.49529 -2.576067 23.23727 -0 0 3.696963 23.36992 9.024715 -22.14337
-127.3223 83.74837 239.7933 6.077846 -1.769946 35.48487 0.2052275 -1.359074 -8.370722 -0 17.80044 -0 -15.43207 1.005593 9.03889 -2.669695 -14.52132 -8.652593 -0 33.70278 -0 6.112745 0.401277 13.16523 -3.648651 -1.93543 7.460422 -1.023292 14.93417 -4.823119 -2.914599 20.09493 9.849213 15.33096 -12.05748 -3.016771 13.8433 -18.623 14.07862 70.65817 38.00144 -8.442652 -0 0 23.414 -25.76588 9.849757 8.834412 8.802047 -28.01659 -12.85125 -94.49529 -2.576067 23.23727 -0 0 3.696963 23.36992 9.024715 -22.14337
-123.4993 83.78829 243.0427 6.054328 -1.849055 34.74009 0.2052275 -1.359074 -8.370722 -0 17.80044 -0 -15.43207 1.005592 9.03889 -2.669695 -14.52132 -8.652593 -0 33.70278 -0 6.112745 0.4012771 13.16523 -3.648651 -1.93543 7.460422 -1.023292 14.93417 -4.823119 -2.914599 20.09493 9.849213 15.33096 -12.05748 -3.016771 13.8433 -18.623 14.07862 70.65817 38.00144 -8.442652 -0 0 23.414 -25.76588 9.849757 8.834412 8.802047 -28.01659 -12.85125 -94.49529 -2.576067 23.23727 -0 0 3.696963 23.36992 9.024715 -22.14337
-119.7192 83.82822 246.3419 6.029782 -1.927852 33.99525 0.2052276 -1.359074 -8.370722 -0 17.80044 -0 -15.43207 1.005592 9.03889 -2.669695 -14.52132 -8.652593 -0 33.70278 -0 6.112745 0.4012771 13.16523 -3.648651 -1.93543 7.460422 -1.023292 14.93417 -4.823119 -2.914599 20.09493 9.849213 15.33096 -12.05748 -3.016771 13.8433 -18.623 14.07862 70.65817 38.00144 -8.442652 -0 0 23.414 -25.76588 9.849757 8.834412 8.802047 -28.01659 -12.85125 -94.49529 -2.576067 23.23727 -0 0 3.696963 23.36992 9.024715 -22.14337
